<svg viewBox="0 0 1600 1200" xmlns="http://www.w3.org/2000/svg" fill-rule="evenodd" clip-rule="evenodd" stroke-linejoin="round" stroke-miterlimit="2"><path d="M1032.255 923.462c-87.405 67.955-197.17 108.426-316.311 108.426C431.187 1031.888 200 800.701 200 515.944 200 231.187 431.187 0 715.944 0c284.757 0 515.944 231.187 515.944 515.944 0 119.142-40.47 228.906-108.426 316.311l276.533 276.533-91.207 91.207-276.533-276.533zM715.944 128.986c213.569 0 386.958 173.39 386.958 386.958 0 213.569-173.39 386.958-386.958 386.958-213.569 0-386.958-173.39-386.958-386.958 0-213.569 173.39-386.958 386.958-386.958z"/></svg>