<?xml version="1.0" encoding="UTF-8" standalone="no"?>
<!DOCTYPE svg PUBLIC "-//W3C//DTD SVG 1.1//EN" "http://www.w3.org/Graphics/SVG/1.1/DTD/svg11.dtd">
<svg width="100%" height="100%" viewBox="0 0 1200 1100" version="1.1" xmlns="http://www.w3.org/2000/svg" xmlns:xlink="http://www.w3.org/1999/xlink" xml:space="preserve" xmlns:serif="http://www.serif.com/" style="fill-rule:evenodd;clip-rule:evenodd;stroke-linejoin:round;stroke-miterlimit:2;">
    <g id="Artboard1" transform="matrix(0.75,0,0,0.916667,0,0)">
        <g transform="matrix(1.16959,0,0,0.989038,63.1579,7.46057)">
            <path d="M597.59,117.481C603.236,105.036 615.954,97 630,97C644.046,97 656.764,105.036 662.41,117.481L793.669,406.786C795.708,411.279 798.944,415.167 803.047,418.051C807.15,420.935 811.972,422.712 817.019,423.2L1141.95,454.583C1155.93,455.933 1167.76,465.152 1172.1,478.077C1176.44,491.002 1172.47,505.188 1161.99,514.229L918.172,724.413C914.385,727.677 911.564,731.857 909.996,736.524C908.429,741.19 908.173,746.177 909.253,750.971L978.815,1059.67C981.808,1072.95 976.401,1086.68 965.038,1094.67C953.674,1102.66 938.503,1103.39 926.376,1096.54L644.431,937.131C640.052,934.655 635.072,933.35 630,933.35C624.928,933.35 619.948,934.655 615.569,937.131L333.624,1096.54C321.497,1103.39 306.326,1102.66 294.962,1094.67C283.599,1086.68 278.192,1072.95 281.185,1059.67L350.747,750.971C351.827,746.177 351.571,741.19 350.004,736.524C348.436,731.857 345.615,727.677 341.828,724.413L98.014,514.229C87.527,505.188 83.557,491.002 87.898,478.077C92.238,465.152 104.068,455.933 118.045,454.583L442.981,423.2C448.028,422.712 452.85,420.935 456.953,418.051C461.056,415.167 464.292,411.279 466.331,406.786L597.59,117.481Z"/>
        </g>
    </g>
</svg>
