<svg viewBox="0 0 1600 1200" xmlns="http://www.w3.org/2000/svg" fill-rule="evenodd" clip-rule="evenodd" stroke-linejoin="round" stroke-miterlimit="2"><path d="M752.383 27.166A55.314 55.314 0 01800 0a55.314 55.314 0 0147.617 27.166l165.35 279.71 317.116 70.821a55.32 55.32 0 0140.55 36.893 55.31 55.31 0 01-11.121 53.68l-214.924 243.694 30.639 323.482a55.313 55.313 0 01-22.557 49.965 55.306 55.306 0 01-54.49 6.01L800 962.321l-298.18 129.1a55.306 55.306 0 01-54.49-6.01 55.313 55.313 0 01-22.557-49.965l30.64-323.482L240.487 468.27a55.31 55.31 0 01-11.122-53.68 55.32 55.32 0 0140.551-36.893l317.116-70.82 165.35-279.711z"/></svg>